<?xml version="1.0" ?><svg xmlns="http://www.w3.org/2000/svg" xmlns:xlink="http://www.w3.org/1999/xlink" version="1.1" viewBox="0 0 32 32" style="enable-background:new 0 0 32 32;" xml:space="preserve"><style type="text/css">
	.st0{display:none;}
	.st1{display:inline;}
	.st2{fill:#CDF6F9;}
	.st3{fill:#FFFFFF;}
	.st4{fill:#1A83A8;}
</style><g id="Layer_1" class="st0"/><g id="Layer_2"/><g id="Layer_3"/><g id="Layer_4"/><g id="Layer_5"/><g id="Layer_6"/><g id="Layer_7"/><g id="Layer_8"/><g id="Layer_9"/><g id="Layer_10"/><g id="Layer_11"/><g id="Layer_12"/><g id="Layer_13"/><g id="Layer_14"/><g id="Layer_15"/><g id="Layer_16"><path class="st2" d="M24.413,29H7.587c-1.125,0-2.036-0.912-2.036-2.036v-0.311c0-4.814,3.903-8.717,8.717-8.717h3.466   c4.814,0,8.717,3.903,8.717,8.717v0.311C26.45,28.088,25.538,29,24.413,29z"/><circle class="st2" cx="16" cy="10.468" r="7.468"/><path class="st4" d="M20.577,17.465c2.28-1.497,3.792-4.072,3.792-6.997C24.368,5.854,20.614,2.1,16,2.1s-8.368,3.754-8.368,8.368   c0,2.925,1.511,5.501,3.792,6.997c-3.919,1.216-6.774,4.874-6.774,9.188v0.312c0,1.619,1.318,2.937,2.938,2.937h16.826   c1.619,0,2.938-1.317,2.938-2.937v-0.312C27.351,22.339,24.496,18.68,20.577,17.465z M9.433,10.468C9.433,6.846,12.379,3.9,16,3.9   s6.567,2.946,6.567,6.568S19.621,17.035,16,17.035S9.433,14.089,9.433,10.468z M25.55,26.964c0,0.627-0.51,1.136-1.137,1.136H7.587   c-0.627,0-1.137-0.509-1.137-1.136v-0.312c0-4.311,3.506-7.816,7.816-7.816h3.467c4.311,0,7.816,3.506,7.816,7.816V26.964z"/><path class="st4" d="M19.329,13.289c0.319-0.38,0.27-0.948-0.11-1.268c-0.38-0.32-0.946-0.271-1.269,0.11   c-0.969,1.154-2.932,1.154-3.9,0c-0.321-0.383-0.89-0.431-1.269-0.11c-0.38,0.319-0.43,0.887-0.11,1.268   c0.828,0.986,2.041,1.551,3.329,1.551S18.501,14.274,19.329,13.289z"/></g><g id="Layer_17"/><g id="Layer_18"/><g id="Layer_19"/><g id="Layer_20"/><g id="Layer_21"/><g id="Layer_22"/><g id="Layer_23"/><g id="Layer_24"/><g id="Layer_25"/><g id="Layer_26"/></svg>