<?xml version="1.0" ?><svg xmlns="http://www.w3.org/2000/svg" xmlns:xlink="http://www.w3.org/1999/xlink" version="1.1" viewBox="0 0 32 32" style="enable-background:new 0 0 32 32;" xml:space="preserve"><style type="text/css">
	.st0{display:none;}
	.st1{display:inline;}
	.st2{fill:#CDF6F9;}
	.st3{fill:#FFFFFF;}
	.st4{fill:#1A83A8;}
</style><g id="Grid" class="st0"/><g id="Money"/><g id="Receipt"/><g id="Search"/><g id="Chart"/><g id="Briefcase"/><g id="Coin"/><g id="Tax"/><g id="Vision"/><g id="Contract"/><g id="Book"/><g id="Financial"/><g id="Payment_day"/><g id="Report"><path class="st2" d="M28.14,8.15v18.16c0,2.04-1.65,3.69-3.69,3.69H7.55c-2.05,0-3.69-1.65-3.69-3.69V8.15   c0-2.03,1.64-3.68,3.69-3.68h3.35L10.65,5.1c-0.35,0.88,0.29,1.83,1.24,1.83h8.22c0.95,0,1.59-0.95,1.24-1.83L21.1,4.47h3.35   C26.49,4.47,28.14,6.12,28.14,8.15z"/><path class="st3" d="M20.11,6.93h-8.22c-0.95,0-1.59-0.95-1.24-1.83l0.25-0.63l0.65-1.63C11.75,2.33,12.24,2,12.79,2h6.42   c0.55,0,1.04,0.33,1.24,0.84l0.65,1.63l0.25,0.63C21.7,5.98,21.06,6.93,20.11,6.93z"/><path class="st4" d="M24.454,3.567h-2.747l-0.424-1.062C20.942,1.651,20.129,1.1,19.21,1.1h-6.42c-0.919,0-1.733,0.551-2.074,1.405   l-0.424,1.062H7.545c-2.528,0-4.585,2.057-4.585,4.585v18.162c0,2.528,2.057,4.586,4.585,4.586h16.909   c2.528,0,4.586-2.058,4.586-4.586V8.153C29.04,5.625,26.982,3.567,24.454,3.567z M11.484,5.435l0.903-2.263   C12.453,3.007,12.611,2.9,12.79,2.9h6.42c0.178,0,0.335,0.107,0.401,0.272l0.903,2.263c0.074,0.186,0.005,0.333-0.044,0.404   c-0.048,0.071-0.158,0.19-0.358,0.19h-8.226c-0.2,0-0.311-0.119-0.359-0.19C11.48,5.768,11.41,5.621,11.484,5.435z M27.239,26.314   c0,1.536-1.249,2.785-2.785,2.785H7.545c-1.536,0-2.786-1.249-2.786-2.785V8.153c0-1.536,1.25-2.786,2.786-2.786h2.127   c-0.053,0.516,0.067,1.041,0.365,1.481c0.416,0.614,1.107,0.98,1.849,0.98h8.226c0.742,0,1.433-0.366,1.849-0.98   c0.299-0.44,0.419-0.965,0.366-1.481h2.127c1.536,0,2.785,1.25,2.785,2.786V26.314z"/><path class="st4" d="M21.198,15.893c-0.497,0-0.9,0.403-0.9,0.9v6.395c0,0.497,0.403,0.9,0.9,0.9s0.9-0.403,0.9-0.9v-6.395   C22.099,16.296,21.695,15.893,21.198,15.893z"/><path class="st4" d="M16,12.842c-0.497,0-0.9,0.403-0.9,0.9v9.446c0,0.497,0.403,0.9,0.9,0.9s0.9-0.403,0.9-0.9v-9.446   C16.9,13.245,16.497,12.842,16,12.842z"/><path class="st4" d="M10.802,18.572c-0.497,0-0.9,0.403-0.9,0.9v3.715c0,0.497,0.403,0.9,0.9,0.9s0.9-0.403,0.9-0.9v-3.715   C11.702,18.976,11.299,18.572,10.802,18.572z"/></g><g id="Loss"/><g id="Profit"/><g id="Money_Bag"/><g id="Target"/><g id="Gold"/><g id="Safety_Box"/><g id="Wallet"/><g id="Investment"/><g id="Pie_Chart"/><g id="Home"/><g id="Assets"/><g id="Computer"/></svg>