<?xml version="1.0" ?><svg xmlns="http://www.w3.org/2000/svg" xmlns:xlink="http://www.w3.org/1999/xlink" version="1.1" viewBox="0 0 32 32" style="enable-background:new 0 0 32 32;" xml:space="preserve"><style type="text/css">
	.st0{display:none;}
	.st1{display:inline;}
	.st2{fill:#CDF6F9;}
	.st3{fill:#FFFFFF;}
	.st4{fill:#1A83A8;}
</style><g id="Layer_1" class="st0"/><g id="Layer_2"/><g id="Layer_3"/><g id="Layer_4"/><g id="Layer_5"/><g id="Layer_6"/><g id="Layer_7"/><g id="Layer_8"/><g id="Layer_9"/><g id="Layer_10"/><g id="Layer_11"/><g id="Layer_12"/><g id="Layer_13"/><g id="Layer_14"/><g id="Layer_15"><path class="st2" d="M7.667,26.375H4.333C3.597,26.375,3,25.778,3,25.042v-5.479c0-0.736,0.597-1.333,1.333-1.333h3.333   C8.403,18.229,9,18.826,9,19.563v5.479C9,25.778,8.403,26.375,7.667,26.375z"/><path class="st2" d="M17.667,26.375h-3.333c-0.736,0-1.333-0.597-1.333-1.333V6.958c0-0.736,0.597-1.333,1.333-1.333h3.333   C18.403,5.625,19,6.222,19,6.958v18.083C19,25.778,18.403,26.375,17.667,26.375z"/><path class="st2" d="M27.667,26.375h-3.333c-0.736,0-1.333-0.597-1.333-1.333V14.083c0-0.736,0.597-1.333,1.333-1.333h3.333   c0.736,0,1.333,0.597,1.333,1.333v10.958C29,25.778,28.403,26.375,27.667,26.375z"/><path class="st4" d="M7.667,17.329H4.333c-1.231,0-2.233,1.002-2.233,2.233v5.479c0,1.231,1.002,2.233,2.233,2.233h3.334   c1.231,0,2.233-1.002,2.233-2.233v-5.479C9.9,18.331,8.898,17.329,7.667,17.329z M8.1,25.042c0,0.238-0.194,0.433-0.433,0.433   H4.333c-0.238,0-0.433-0.194-0.433-0.433v-5.479c0-0.238,0.194-0.433,0.433-0.433h3.334c0.238,0,0.433,0.194,0.433,0.433V25.042z"/><path class="st4" d="M17.667,4.725h-3.334c-1.231,0-2.233,1.002-2.233,2.233v18.083c0,1.231,1.002,2.233,2.233,2.233h3.334   c1.231,0,2.233-1.002,2.233-2.233V6.958C19.9,5.727,18.898,4.725,17.667,4.725z M18.1,25.042c0,0.238-0.194,0.433-0.433,0.433   h-3.334c-0.238,0-0.433-0.194-0.433-0.433V6.958c0-0.239,0.194-0.434,0.433-0.434h3.334c0.238,0,0.433,0.194,0.433,0.434V25.042z"/><path class="st4" d="M27.667,11.85h-3.334c-1.231,0-2.233,1.002-2.233,2.233v10.958c0,1.231,1.002,2.233,2.233,2.233h3.334   c1.231,0,2.233-1.002,2.233-2.233V14.083C29.9,12.852,28.898,11.85,27.667,11.85z M28.1,25.042c0,0.238-0.194,0.433-0.433,0.433   h-3.334c-0.238,0-0.433-0.194-0.433-0.433V14.083c0-0.239,0.194-0.434,0.433-0.434h3.334c0.238,0,0.433,0.194,0.433,0.434V25.042z"/></g><g id="Layer_16"/><g id="Layer_17"/><g id="Layer_18"/><g id="Layer_19"/><g id="Layer_20"/><g id="Layer_21"/><g id="Layer_22"/><g id="Layer_23"/><g id="Layer_24"/><g id="Layer_25"/><g id="Layer_26"/></svg>