<?xml version="1.0" ?><svg xmlns="http://www.w3.org/2000/svg" xmlns:xlink="http://www.w3.org/1999/xlink" version="1.1" viewBox="0 0 32 32" style="enable-background:new 0 0 32 32;" xml:space="preserve"><style type="text/css">
	.st0{display:none;}
	.st1{display:inline;}
	.st2{fill:#CDF6F9;}
	.st3{fill:#FFFFFF;}
	.st4{fill:#1A83A8;}
</style><g id="Grid" class="st0"/><g id="Money"/><g id="Receipt"/><g id="Search"/><g id="Chart"><path class="st3" d="M19.567,24.26h-3.618c-0.569,0-1.03-0.461-1.03-1.03V5.254c0-0.569,0.461-1.03,1.03-1.03h3.618   c0.569,0,1.03,0.461,1.03,1.03v17.976C20.598,23.799,20.137,24.26,19.567,24.26z"/><path class="st2" d="M10.165,24.26H6.547c-0.569,0-1.03-0.461-1.03-1.03v-6.853c0-0.569,0.461-1.03,1.03-1.03h3.618   c0.569,0,1.03,0.461,1.03,1.03v6.853C11.196,23.799,10.734,24.26,10.165,24.26z"/><path class="st2" d="M28.97,24.26h-3.618c-0.569,0-1.03-0.461-1.03-1.03V10.97c0-0.569,0.461-1.03,1.03-1.03h3.618   c0.569,0,1.03,0.461,1.03,1.03v12.259C30,23.799,29.539,24.26,28.97,24.26z"/><path class="st4" d="M15.949,25.16h3.618c1.064,0,1.931-0.866,1.931-1.93V5.254c0-1.064-0.866-1.931-1.931-1.931h-3.618   c-1.064,0-1.931,0.866-1.931,1.931v17.976C14.019,24.294,14.885,25.16,15.949,25.16z M15.819,5.254c0-0.072,0.058-0.131,0.13-0.131   h3.618c0.072,0,0.13,0.059,0.13,0.131v17.976c0,0.072-0.058,0.13-0.13,0.13h-3.618c-0.072,0-0.13-0.059-0.13-0.13V5.254z"/><path class="st4" d="M6.547,25.16h3.618c1.064,0,1.931-0.866,1.931-1.93v-6.854c0-1.064-0.866-1.93-1.931-1.93H6.547   c-1.064,0-1.931,0.866-1.931,1.93v6.854C4.616,24.294,5.482,25.16,6.547,25.16z M6.417,16.376c0-0.072,0.058-0.13,0.13-0.13h3.618   c0.072,0,0.13,0.059,0.13,0.13v6.854c0,0.072-0.058,0.13-0.13,0.13H6.547c-0.072,0-0.13-0.059-0.13-0.13V16.376z"/><path class="st4" d="M28.97,9.04h-3.618c-1.064,0-1.931,0.866-1.931,1.931v12.259c0,1.064,0.866,1.93,1.931,1.93h3.618   c1.064,0,1.931-0.866,1.931-1.93V10.97C30.9,9.906,30.034,9.04,28.97,9.04z M29.1,23.229c0,0.072-0.058,0.13-0.13,0.13h-3.618   c-0.072,0-0.13-0.059-0.13-0.13V10.97c0-0.072,0.058-0.131,0.13-0.131h3.618c0.072,0,0.13,0.059,0.13,0.131V23.229z"/><path class="st4" d="M30,26.877H2.9V4.223c0-0.497-0.403-0.9-0.9-0.9s-0.9,0.403-0.9,0.9v23.554c0,0.497,0.403,0.9,0.9,0.9h28   c0.497,0,0.9-0.403,0.9-0.9S30.497,26.877,30,26.877z"/></g><g id="Briefcase"/><g id="Coin"/><g id="Tax"/><g id="Vision"/><g id="Contract"/><g id="Book"/><g id="Financial"/><g id="Payment_day"/><g id="Report"/><g id="Loss"/><g id="Profit"/><g id="Money_Bag"/><g id="Target"/><g id="Gold"/><g id="Safety_Box"/><g id="Wallet"/><g id="Investment"/><g id="Pie_Chart"/><g id="Home"/><g id="Assets"/><g id="Computer"/></svg>