<?xml version="1.0" ?><svg xmlns="http://www.w3.org/2000/svg" xmlns:xlink="http://www.w3.org/1999/xlink" version="1.1" viewBox="0 0 32 32" style="enable-background:new 0 0 32 32;" xml:space="preserve"><style type="text/css">
	.st0{display:none;}
	.st1{display:inline;}
	.st2{fill:#CDF6F9;}
	.st3{fill:#FFFFFF;}
	.st4{fill:#1A83A8;}
</style><g id="Grid" class="st0"/><g id="Pencil"/><g id="Backpack"/><g id="Research"/><g id="Sunglasses"/><g id="Book"/><g id="Apple"/><g id="Note_Book"/><g id="Open_Book"/><g id="Homework"/><g id="Certificate"/><g id="Bell"/><g id="Projector"/><g id="Note_Book_1_"/><g id="Paper"/><g id="Science_Book"/><g id="Test"/><g id="Whiteboard"/><g id="Schedule"/><g id="School"/><g id="Ebook"/><g id="Globe"/><g id="Planner"/><g id="Presentation"/><g id="Global_Education"/><g id="Failed"><path class="st2" d="M5.19,26.94c-1.591,0-2.88-1.289-2.88-2.88V4.89C2.31,3.3,3.6,2,5.2,2h18.43c1.596,0,2.89,1.294,2.89,2.89   v19.16c0,1.596-1.294,2.89-2.89,2.89H5.19z"/><circle class="st3" cx="24.199" cy="24.507" r="5.493"/><path class="st4" d="M15.548,26.04H5.191c-1.094,0-1.983-0.89-1.983-1.984V4.894c0-1.1,0.895-1.993,1.994-1.993h18.432   c1.094,0,1.983,0.89,1.983,1.983V15.81c0,0.497,0.403,0.9,0.9,0.9s0.9-0.403,0.9-0.9V4.884c0-2.086-1.698-3.784-3.784-3.784H5.202   c-2.093,0-3.795,1.702-3.795,3.794v19.162c0,2.087,1.698,3.785,3.784,3.785h10.356c0.497,0,0.9-0.403,0.9-0.9   S16.045,26.04,15.548,26.04z"/><path class="st4" d="M21.753,7.334H7.068c-0.497,0-0.9,0.403-0.9,0.9s0.403,0.9,0.9,0.9h14.685c0.497,0,0.9-0.403,0.9-0.9   S22.25,7.334,21.753,7.334z"/><path class="st4" d="M21.753,13.568H7.068c-0.497,0-0.9,0.403-0.9,0.9s0.403,0.9,0.9,0.9h14.685c0.497,0,0.9-0.403,0.9-0.9   S22.25,13.568,21.753,13.568z"/><path class="st4" d="M16.058,19.8h-8.99c-0.497,0-0.9,0.403-0.9,0.9s0.403,0.9,0.9,0.9h8.99c0.497,0,0.9-0.403,0.9-0.9   S16.555,19.8,16.058,19.8z"/><path class="st4" d="M28.72,19.986c-1.207-1.207-2.813-1.872-4.521-1.872s-3.313,0.665-4.521,1.872s-1.872,2.813-1.872,4.521   s0.665,3.313,1.872,4.521c1.246,1.246,2.884,1.869,4.521,1.869c1.637,0,3.274-0.623,4.521-1.869   c1.207-1.208,1.872-2.813,1.872-4.521S29.927,21.193,28.72,19.986z M27.446,27.755c-1.789,1.791-4.705,1.791-6.494,0   c-0.868-0.867-1.346-2.021-1.346-3.248c0-1.227,0.478-2.38,1.346-3.247c0.867-0.868,2.021-1.346,3.247-1.346   s2.38,0.478,3.247,1.346c0.868,0.867,1.346,2.021,1.346,3.247C28.792,25.734,28.314,26.888,27.446,27.755z"/><path class="st4" d="M26.167,22.541c-0.352-0.352-0.922-0.352-1.273,0l-0.693,0.693l-0.693-0.693c-0.352-0.352-0.922-0.352-1.273,0   s-0.352,0.922,0,1.273l0.693,0.693L22.234,25.2c-0.352,0.352-0.352,0.922,0,1.273c0.176,0.176,0.406,0.264,0.637,0.264   s0.461-0.088,0.637-0.264l0.693-0.693l0.693,0.693c0.176,0.176,0.406,0.264,0.637,0.264s0.461-0.088,0.637-0.264   c0.352-0.352,0.352-0.922,0-1.273l-0.693-0.693l0.693-0.693C26.519,23.463,26.519,22.893,26.167,22.541z"/></g></svg>