<?xml version="1.0" ?><svg xmlns="http://www.w3.org/2000/svg" xmlns:xlink="http://www.w3.org/1999/xlink" version="1.1" viewBox="0 0 32 32" style="enable-background:new 0 0 32 32;" xml:space="preserve"><style type="text/css">
	.st0{display:none;}
	.st1{display:inline;}
	.st2{fill:#CDF6F9;}
	.st3{fill:#FFFFFF;}
	.st4{fill:#1A83A8;}
</style><g id="Grid" class="st0"/><g id="Pencil"/><g id="Backpack"/><g id="Research"/><g id="Sunglasses"/><g id="Book"/><g id="Apple"/><g id="Note_Book"/><g id="Open_Book"/><g id="Homework"><path class="st2" d="M25.66,4.76v22.48c0,1.52-1.24,2.76-2.76,2.76H5.54c-1.53,0-2.76-1.24-2.76-2.76V9.43H7.9   c1.27,0,2.3-1.03,2.3-2.3V2h12.7C24.43,2,25.66,3.24,25.66,4.76z"/><path class="st3" d="M10.2,2v5.13c0,1.27-1.03,2.3-2.3,2.3H2.78V8.08c0-0.7,0.27-1.37,0.77-1.86L7,2.77C7.49,2.28,8.16,2,8.86,2   H10.2z"/><path class="st3" d="M28.528,17.994L28.528,17.994c0.923,0.923,0.923,2.419,0,3.342l-7.979,7.979   c-0.124,0.124-0.283,0.206-0.456,0.235l-2.587,0.437c-0.572,0.097-1.068-0.4-0.971-0.971l0.437-2.587   c0.029-0.173,0.111-0.332,0.235-0.456l7.979-7.979C26.109,17.072,27.605,17.072,28.528,17.994z"/><path class="st4" d="M8.612,14.048c-0.497,0-0.9,0.403-0.9,0.9s0.403,0.9,0.9,0.9h11.216c0.497,0,0.9-0.403,0.9-0.9   s-0.403-0.9-0.9-0.9H8.612z"/><path class="st4" d="M14.047,18.756H8.612c-0.497,0-0.9,0.403-0.9,0.9s0.403,0.9,0.9,0.9h5.435c0.497,0,0.9-0.403,0.9-0.9   S14.544,18.756,14.047,18.756z"/><path class="st4" d="M13.11,29.1H5.54c-1.025,0-1.859-0.834-1.859-1.86V10.332h4.218c1.766,0,3.203-1.437,3.203-3.203V2.9H22.9   c1.025,0,1.859,0.834,1.859,1.86v9.16c0,0.497,0.403,0.9,0.9,0.9s0.9-0.403,0.9-0.9V4.76c0-2.018-1.643-3.66-3.66-3.66H8.85   c-0.923,0-1.829,0.376-2.486,1.034L2.92,5.577C2.25,6.234,1.88,7.123,1.88,8.08v19.16c0,2.018,1.643,3.66,3.66,3.66h7.57   c0.497,0,0.9-0.403,0.9-0.9S13.607,29.1,13.11,29.1z M4.187,6.856l3.45-3.45C7.958,3.084,8.4,2.9,8.85,2.9h0.451v4.229   c0,0.774-0.629,1.403-1.402,1.403H3.681V8.08C3.681,7.611,3.857,7.179,4.187,6.856z"/><path class="st4" d="M29.163,17.358c-1.233-1.234-3.383-1.232-4.614,0l-7.979,7.979c-0.259,0.259-0.427,0.586-0.485,0.942   l-0.438,2.587c-0.094,0.555,0.088,1.124,0.486,1.522c0.329,0.329,0.775,0.51,1.233,0.51c0.097,0,0.193-0.008,0.289-0.024   l2.588-0.437c0.359-0.061,0.685-0.229,0.942-0.486l7.978-7.979c0.617-0.616,0.957-1.436,0.957-2.308S29.78,17.974,29.163,17.358z    M19.943,28.664l-2.521,0.503l0.421-2.557l5.719-5.719l2.071,2.071L19.943,28.664z M27.891,20.7l-0.986,0.988l-2.07-2.07   l0.987-0.987c0.276-0.276,0.644-0.429,1.034-0.429s0.758,0.152,1.034,0.429l0.001,0c0.276,0.276,0.429,0.644,0.429,1.034   S28.168,20.423,27.891,20.7z"/></g><g id="Certificate"/><g id="Bell"/><g id="Projector"/><g id="Note_Book_1_"/><g id="Paper"/><g id="Science_Book"/><g id="Test"/><g id="Whiteboard"/><g id="Schedule"/><g id="School"/><g id="Ebook"/><g id="Globe"/><g id="Planner"/><g id="Presentation"/><g id="Global_Education"/><g id="Failed"/></svg>