<?xml version="1.0" ?><svg xmlns="http://www.w3.org/2000/svg" xmlns:xlink="http://www.w3.org/1999/xlink" version="1.1" viewBox="0 0 32 32" style="enable-background:new 0 0 32 32;" xml:space="preserve"><style type="text/css">
	.st0{display:none;}
	.st1{display:inline;}
	.st2{fill:#CDF6F9;}
	.st3{fill:#FFFFFF;}
	.st4{fill:#1A83A8;}
</style><g id="Grid" class="st0"/><g id="Pencil"><path class="st2" d="M28.763,13.72L14.374,28.109c-0.213,0.213-0.489,0.352-0.787,0.396l-9.976,1.479   c-0.932,0.138-1.733-0.663-1.595-1.595l1.479-9.976c0.044-0.298,0.183-0.574,0.396-0.787L18.28,3.237   c1.649-1.649,4.323-1.649,5.972,0l4.511,4.511C30.412,9.397,30.412,12.071,28.763,13.72z"/><path class="st3" d="M14,28.38c-0.13,0.06-0.27,0.11-0.41,0.13l-9.98,1.47c-0.93,0.14-1.73-0.66-1.59-1.59l1.47-9.98   c0.02-0.14,0.07-0.28,0.13-0.41L14,28.38z"/><path class="st2" d="M6.84,29.5l-3.23,0.48c-0.93,0.14-1.73-0.66-1.59-1.59l0.48-3.23L6.84,29.5z"/><line class="st2" x1="2.5" y1="25.16" x2="2.49" y2="25.15"/><line class="st2" x1="6.85" y1="29.51" x2="6.84" y2="29.5"/><path class="st3" d="M28.767,13.724L26.6,15.882L16.118,5.4l2.157-2.167c1.651-1.641,4.324-1.641,5.975,0l4.517,4.517   C30.408,9.4,30.408,12.074,28.767,13.724z"/><path class="st4" d="M29.407,7.11l-4.519-4.519c-1.997-1.985-5.247-1.985-7.247,0.003l-1.878,1.887L3.258,16.987   c-0.347,0.347-0.578,0.805-0.65,1.291l-1.479,9.976c-0.108,0.729,0.129,1.446,0.65,1.967s1.238,0.758,1.967,0.65l9.977-1.479   c0.485-0.073,0.944-0.303,1.291-0.65l12.518-12.518l1.874-1.865c0.001-0.001,0.002-0.002,0.003-0.003   C31.393,12.359,31.393,9.109,29.407,7.11z M3.482,29.091c-0.219,0.032-0.364-0.076-0.431-0.143   c-0.067-0.067-0.175-0.212-0.143-0.431l0.217-1.465l1.821,1.821L3.482,29.091z M7.164,28.545l-3.709-3.709l0.74-4.99l7.959,7.959   L7.164,28.545z M14.052,27.158l-9.21-9.21L16.121,6.669l9.21,9.21L14.052,27.158z M28.133,13.086l-1.529,1.521l-9.212-9.212   l1.52-1.527c1.298-1.29,3.409-1.29,4.705-0.002l4.515,4.515C29.421,9.678,29.422,11.788,28.133,13.086z"/></g><g id="Backpack"/><g id="Research"/><g id="Sunglasses"/><g id="Book"/><g id="Apple"/><g id="Note_Book"/><g id="Open_Book"/><g id="Homework"/><g id="Certificate"/><g id="Bell"/><g id="Projector"/><g id="Note_Book_1_"/><g id="Paper"/><g id="Science_Book"/><g id="Test"/><g id="Whiteboard"/><g id="Schedule"/><g id="School"/><g id="Ebook"/><g id="Globe"/><g id="Planner"/><g id="Presentation"/><g id="Global_Education"/><g id="Failed"/></svg>